<?xml version="1.0" encoding="UTF-8" standalone="no"?>
<!-- Created with Inkscape (http://www.inkscape.org/) -->

<svg
   width="486.50571"
   height="479.36002"
   id="svg2"
   version="1.1"
   xml:space="preserve"
   xmlns="http://www.w3.org/2000/svg"
   xmlns:svg="http://www.w3.org/2000/svg"
   xmlns:rdf="http://www.w3.org/1999/02/22-rdf-syntax-ns#"
   xmlns:cc="http://creativecommons.org/ns#"
   xmlns:dc="http://purl.org/dc/elements/1.1/"><defs
     id="defs4" /><metadata
     id="metadata7"><rdf:RDF><cc:Work
         rdf:about=""><dc:format>image/svg+xml</dc:format><dc:type
           rdf:resource="http://purl.org/dc/dcmitype/StillImage" /></cc:Work></rdf:RDF></metadata><style
     type="text/css"
     id="mapStyle">
/* Cascading Style Sheet (CSS) definitions for region colours */

/* land: #E0E0E0 -- outside area (or default land colour)
 * sea: #FFFFFF -- ocean / sea / lake
 * border: #646464 -- land borders
 * subject land: #336733 -- subject colour
 * other land: #C6DEBD -- other lands of the same political unity
 * coast: #646464 -- lake's coast, rivers, sea coasts
 * political border: #646464 -- Other minor political borders
 * interest border: #335033 -- border colour for areas of interest
 */

/* basic styles */
path{
   stroke-linejoin: bevel;
}

path,circle{
   stroke-width: 0.5;
}

/* Main region definition */

.region{
   fill: #E0E0E0;
   stroke: #646464;
   stroke-width: 0.5;
}

/* Political groupings */

.political{
   fill: #C6DEBD;
   stroke: #646464;
}

/* Subject / area of interest */

.subject{
   fill: #336733;
   stroke: #335033;
}

circle.highlight{
   stroke-width: 1.25;
}

/* Rivers */

.river{
   fill: none;
   stroke: #646464;
   stroke-width: 0.25;
}

/* Sea and decoration */
.seabase{
   fill: #FFFFFF;
   stroke: none;
}

.mapborder{
   fill: none;
   stroke: #646464;
   stroke-width: 1.25;
}

.mapshadow{
  fill: url(#grSea);
  stroke: none;
}

/* Grid lines */
.grid{
  fill: none;
  stroke: #646464;
}

/* Colouring a particular country, use '*' with group ID */
/*
 * #gNZL *{
 *   fill: #ff0000;
 *   stroke: black;
 * }
 */
/* ...or '.' with country name */
/*
 * .NZL *{
 *   fill: #ff0000;
 *   stroke: black;
 * }
 */
</style><g
     id="layer1"
     transform="translate(-271.09245,-233.37861)"
     style="display:inline"><g
       style="font-style:normal;font-variant:normal;font-weight:bold;font-stretch:normal;font-size:1046.56px;line-height:125%;font-family:'Apple LiGothic';-inkscape-font-specification:'Apple LiGothic Bold';letter-spacing:0px;word-spacing:0px;fill:#ffffff;fill-opacity:1;stroke:none"
       id="text6059"
       transform="matrix(0.99064243,0,0,0.87395899,9.843471,100.35714)"><path
         d="m 633.32062,323.82738 c -40.88657,125.62361 -81.77314,251.24721 -122.65971,376.87082 -5.1917,-8.17747 -7.1475,-20.81386 -11.09526,-30.70542 -37.55861,-115.16751 -75.11721,-230.33502 -112.67582,-345.50253 -15.46624,105.20263 -30.93249,210.40527 -46.39873,315.6079 -25.59146,0 -51.18292,0 -76.77438,0 31.5739,-162.63084 63.14779,-325.26169 94.72169,-487.89253 18.88302,0 37.76603,0 56.64905,0 31.73812,113.0454 63.47625,226.09081 95.21437,339.13621 31.37621,-112.56841 62.75243,-225.13683 94.12864,-337.70524 19.13148,0 38.26295,0 57.39443,0 30.99768,161.43837 61.99536,322.87674 92.99304,484.31511 -25.59146,0 -51.18292,0 -76.77438,0 C 663.13591,533.24359 648.22827,428.53549 633.32062,323.82738 Z"
         style="font-family:'Apple LiGothic';-inkscape-font-specification:'Apple LiGothic Bold';fill:#ffffff;fill-opacity:1"
         id="path6064" /></g></g></svg>
